<?xml version="1.0" encoding="UTF-8"?>
<svg id="Layer_1" data-name="Layer 1" xmlns="http://www.w3.org/2000/svg" xmlns:xlink="http://www.w3.org/1999/xlink" viewBox="0 0 1274.31 340.17">
  <defs>
    <style>
      .cls-1 {
        fill: url(#linear-gradient);
      }

      .cls-1, .cls-2, .cls-3 {
        stroke-width: 0px;
      }

      .cls-2 {
        fill: #353434;
      }

      .cls-3 {
        fill: #ffb306;
      }
    </style>
    <linearGradient id="linear-gradient" x1="48.22" y1="22.74" x2="287.37" y2="261.89" gradientTransform="translate(0 311.49) scale(1 -1)" gradientUnits="userSpaceOnUse">
      <stop offset="0" stop-color="#0e73dd"/>
      <stop offset=".18" stop-color="#1684df"/>
      <stop offset=".47" stop-color="#219ae0"/>
      <stop offset=".74" stop-color="#27a7e2"/>
      <stop offset="1" stop-color="#29abe2"/>
    </linearGradient>
  </defs>
  <g>
    <path class="cls-2" d="M444.52,31.4v117.48h-25.24l-1.15-15.67c-4.62,10.39-14.02,17.32-26.73,17.32-21.45,0-33.99-15.67-33.99-42.57s12.87-43.23,33.99-43.23c12.04,0,20.62,6.27,25.08,15.67V31.4h28.05ZM416.3,108.45l.17.17v-2.15l-.17.33c0-13.69-5.44-21.45-15.18-21.45s-15.51,6.76-15.51,22.27,5.94,22.27,15.51,22.27,15.18-7.26,15.18-21.45Z"/>
    <path class="cls-2" d="M547.64,107.62c0,27.06-16,42.9-43.56,42.9s-43.56-15.84-43.56-42.9,16-42.9,43.56-42.9,43.56,15.84,43.56,42.9ZM488.57,107.62c0,16.17,5.11,22.93,15.51,22.93s15.51-6.76,15.51-22.93-5.11-22.93-15.51-22.93-15.51,6.77-15.51,22.93Z"/>
    <path class="cls-2" d="M643.01,90.3l-26.07,8.58c-1.15-9.57-5.28-14.19-12.7-14.19-10.56,0-16.33,7.09-16.33,23.26s6.43,22.6,16.33,22.6c7.92,0,12.37-4.78,13.69-13.36l25.24,8.08c-2.31,14.35-15.67,25.24-38.77,25.24-28.87,0-44.55-15.84-44.55-42.9s16-42.9,43.39-42.9,37.12,12.21,39.76,25.57Z"/>
    <path class="cls-2" d="M717.92,144.25c-5.44,3.79-14.68,6.27-23.26,6.27-18.64,0-30.19-7.26-30.36-26.4v-37.78h-14.19v-19.96h14.19v-18.48l28.05-7.75v26.23h24.75v19.96h-24.75v33.16c0,7.92,3.96,11.05,10.89,11.05,5.11,0,8.58-1.32,11.88-3.63l2.8,17.32Z"/>
    <path class="cls-2" d="M812.96,107.62c0,27.06-16,42.9-43.56,42.9s-43.56-15.84-43.56-42.9,16-42.9,43.56-42.9,43.56,15.84,43.56,42.9ZM753.89,107.62c0,16.17,5.11,22.93,15.51,22.93s15.51-6.76,15.51-22.93-5.12-22.93-15.51-22.93-15.51,6.77-15.51,22.93Z"/>
    <path class="cls-2" d="M889.02,66.54l-2.97,23.76c-2.14-1.32-6.1-2.47-10.39-2.47-9.9,0-18.48,6.43-18.48,19.47v41.58h-28.05v-82.5h24.75l1.16,17.65c4.12-12.21,12.21-19.3,25.08-19.3,4.12,0,7.09.82,8.91,1.81Z"/>
    <path class="cls-2" d="M1012.78,90.3l-26.07,8.58c-1.16-9.57-5.28-14.19-12.7-14.19-10.56,0-16.33,7.09-16.33,23.26s6.43,22.6,16.33,22.6c7.92,0,12.37-4.78,13.69-13.36l25.24,8.08c-2.31,14.35-15.67,25.24-38.77,25.24-28.87,0-44.55-15.84-44.55-42.9s16-42.9,43.39-42.9,37.12,12.21,39.76,25.57Z"/>
    <path class="cls-2" d="M1112.6,132.21l-2.14,15.67c-3.3,1.81-7.09,2.64-11.22,2.64-11.05,0-18.81-3.79-21.28-12.7-4.62,7.92-14.19,12.7-29.37,12.7-16.33,0-25.57-7.26-25.57-20.62s8.74-22.44,32.17-27.06l18.64-3.63v-2.97c0-7.42-4.29-12.21-11.71-12.21-7.92,0-13.69,3.13-15.34,12.7l-22.77-6.6c2.8-15.67,15.67-25.41,38.11-25.41,25.41,0,39.43,10.39,39.43,31.68v30.03c0,4.29,1.98,6.43,5.94,6.43,1.98,0,3.63-.17,5.11-.66ZM1073.83,120.66v-7.09l-13.36,3.13c-6.93,1.65-9.73,3.96-9.73,8.58s2.97,7.09,8.08,7.09c6.93,0,15.01-4.12,15.01-11.71Z"/>
    <path class="cls-2" d="M1183.55,66.54l-2.97,23.76c-2.14-1.32-6.1-2.47-10.39-2.47-9.9,0-18.48,6.43-18.48,19.47v41.58h-28.05v-82.5h24.75l1.16,17.65c4.12-12.21,12.21-19.3,25.08-19.3,4.12,0,7.09.82,8.91,1.81Z"/>
    <path class="cls-2" d="M1273.15,115.71h-56.26c1.81,10.72,7.92,15.01,17.32,15.01,8.25,0,13.36-3.3,15.18-9.07l22.77,7.26c-4.79,14.35-18.81,21.61-37.95,21.61-28.87,0-44.55-15.67-44.55-42.9s15.51-42.9,43.06-42.9,41.25,15.67,41.25,41.74c0,2.81-.33,7.09-.82,9.24ZM1216.89,100.53h31.02c-1.49-10.56-6.6-16.17-15.34-16.17s-14.19,4.95-15.67,16.17Z"/>
    <path class="cls-2" d="M438.25,270.27l-.49,6.6c-1.81.99-4.62,1.65-8.08,1.65-6.76,0-12.7-2.8-13.53-14.02-5.28,9.24-18.15,14.02-29.86,14.02-15.84,0-26.89-7.26-26.89-20.95,0-12.54,9.9-20.95,31.35-24.75l25.24-4.45v-7.26c0-13.04-7.92-21.12-22.44-21.12-12.87,0-21.78,5.44-26.4,17.49l-6.27-4.62c4.79-12.87,16.33-20.13,32.67-20.13,18.64,0,30.69,9.07,30.69,27.39v42.57c0,5.94,2.64,8.74,7.59,8.74,2.31,0,4.78-.33,6.43-1.15ZM415.97,250.47v-15.34l-22.6,4.12c-17.82,3.3-25.57,9.08-25.57,18.31,0,8.75,7.26,13.69,19.3,13.69,13.03,0,28.87-6.93,28.87-20.79Z"/>
    <path class="cls-2" d="M525.2,223.41v53.46h-8.25v-50.82c0-18.15-9.9-26.07-24.09-26.07-15.51,0-29.53,11.05-29.53,30.36v46.53h-8.25v-82.5h7.42l.5,16.5c5.28-11.88,16.99-18.15,30.69-18.15,18.31,0,31.51,10.39,31.51,30.69Z"/>
    <path class="cls-2" d="M578.01,292.05c-6.27,15.34-13.2,20.29-24.42,20.29-7.09,0-12.04-1.98-15.67-6.11l3.14-7.09c3.13,4.62,7.92,5.94,12.54,5.94,7.09,0,12.54-2.97,17.32-15.01l5.28-13.2-8.58-20.46-26.23-62.04h9.4l25.24,62.53,4.12,11.05,4.46-11.88,24.25-61.71h8.91l-39.76,97.68Z"/>
    <path class="cls-2" d="M750.92,194.38l-28.21,82.5h-8.25l-26.07-72.1-25.41,72.1h-8.25l-28.21-82.5h9.24l23.1,72.93,25.74-72.93h8.25l25.74,72.93,23.1-72.93h9.24Z"/>
    <path class="cls-2" d="M841.18,223.25v53.62h-8.25v-50.98c0-17.98-9.9-26.07-24.09-26.07-15.51,0-29.53,11.22-29.53,30.52v46.53h-8.25v-120.45h8.25v54.45c5.28-11.88,16.66-18.15,30.36-18.15,18.31,0,31.51,10.39,31.51,30.52Z"/>
    <path class="cls-2" d="M938.03,239.09h-65.34c1.16,20.13,12.38,32.17,30.69,32.17,12.87,0,22.77-5.44,26.89-15.18l6.93,3.63c-6.1,11.71-17.32,18.81-33.82,18.81-24.42,0-38.94-16.17-38.94-42.9s13.86-42.9,37.95-42.9,35.97,16.83,35.97,40.92c0,2.14-.17,4.12-.33,5.44ZM872.69,231.66h57.91c-1.16-19.63-11.05-31.68-28.21-31.68s-28.54,11.71-29.7,31.68Z"/>
    <path class="cls-2" d="M1007,195.53l-2.14,7.75c-2.31-1.82-5.45-2.97-10.56-2.97-12.38,0-24.09,12.54-24.09,30.36v46.2h-8.25v-82.5h6.93l.99,16.99c4.29-11.55,13.69-18.64,26.73-18.64,4.29,0,7.92.99,10.39,2.8Z"/>
    <path class="cls-2" d="M1088.67,239.09h-65.34c1.16,20.13,12.37,32.17,30.69,32.17,12.87,0,22.77-5.44,26.89-15.18l6.93,3.63c-6.11,11.71-17.32,18.81-33.82,18.81-24.42,0-38.94-16.17-38.94-42.9s13.86-42.9,37.95-42.9,35.97,16.83,35.97,40.92c0,2.14-.17,4.12-.33,5.44ZM1023.34,231.66h57.91c-1.16-19.63-11.05-31.68-28.21-31.68s-28.54,11.71-29.7,31.68Z"/>
  </g>
  <circle class="cls-3" cx="167.78" cy="169.11" r="72"/>
  <circle class="cls-3" cx="1145.48" cy="263.11" r="16"/>
  <path class="cls-1" d="M167.78,338.31c-22,0-43.5-4.2-63.8-12.5-17.5-7.1-25.9-27.1-18.8-44.6s27.1-25.9,44.6-18.8c12.1,4.9,24.8,7.4,38,7.4,55.6,0,100.8-45.2,100.8-100.8s-45.2-100.8-100.8-100.8-100.7,45.4-100.7,100.9c0,13.1,2.5,25.9,7.4,38,7.1,17.5-1.3,37.4-18.8,44.6-17.5,7.1-37.4-1.3-44.6-18.8C2.88,212.61-1.32,191.21-1.32,169.11-1.32,75.91,74.58,0,167.78,0s169.1,75.9,169.1,169.1c.1,93.3-75.8,169.2-169.1,169.2Z"/>
</svg>